{"title":"NRL 360 - 23-6-2016","uid":15095679,"size":1238499453,"categoryP":"video","categoryS":"tv_shows","magnet":"?xt=urn:btih:429d4f360455e91c7b0c881f925a73bc702672e4&amp;dn=NRL+360+-+23-6-2016&amp;tr=udp%3A%2F%2Ftracker.leechers-paradise.org%3A6969&amp;tr=udp%3A%2F%2Fzer0day.ch%3A1337&amp;tr=udp%3A%2F%2Fopen.demonii.com%3A1337&amp;tr=udp%3A%2F%2Ftracker.coppersurfer.tk%3A6969&amp;tr=udp%3A%2F%2Fexodus.desync.com%3A6969","seeders":3,"leechers":0,"uploader":"Bullrout","files":1,"time":1466916933,"description":"NRL 360 - 23-6-2016\r\n\r\nOn the agenda, an exclusive wrap-up of Origin II as Ben &amp; Paul are joined by Kevin Walters &amp; Laurie Daley. Plus, Geoff Toovey &amp; Billy Moore are in for Legends' Night with their thoughts on Game II &amp; Round 16.\r\n\r\nComplete name : NRL 360 - 23-6-2016.mkv\r\nFormat : Matroska\r\nFormat version : Version 4 / Version 2\r\nFile size : 1.15 GiB\r\nDuration : 50mn 6s\r\nOverall bit rate mode : Variable\r\nOverall bit rate : 3 295 Kbps\r\nEncoded date : UTC 2016-06-24 07:59:24\r\nWriting application : mkvmerge v9.2.0 ('Photograph') 64bit\r\nWriting library : libebml v1.3.3 + libmatroska v1.4.4\r\n\r\nVideo\r\nID : 2\r\nFormat : AVC\r\nFormat/Info : Advanced Video Codec\r\nFormat profile :   \r\nFormat settings, CABAC : Yes\r\nFormat settings, ReFrames : 3 frames\r\nCodec ID : V_MPEG4/ISO/AVC\r\nDuration : 50mn 6s\r\nBit rate mode : Variable\r\nBit rate : 2 910 Kbps\r\nMaximum bit rate : 3 000 Kbps\r\nWidth : 1 280 pixels\r\nHeight : 720 pixels\r\nDisplay aspect ratio : 16:9\r\nFrame rate mode : Constant\r\nFrame rate : 25.000 fps\r\nStandard : PAL\r\nColor space : YUV\r\nChroma subsampling : 4:2:0\r\nBit depth : 8 bits\r\nScan type : Progressive\r\nBits/(Pixel*Frame) : 0.126\r\nStream size : 1.02 GiB (88%)\r\nWriting library : x264 core 112\r\nDefault : Yes\r\nForced : No\r\nColor range : Limited\r\nColor primaries : BT.709\r\nTransfer characteristics : BT.709\r\nMatrix coefficients : BT.709\r\n\r\nAudio\r\nID : 1\r\nFormat : AC-3\r\nFormat/Info : Audio Coding 3\r\nMode extension : CM (complete main)\r\nFormat settings, Endianness : Big\r\nCodec ID : A_AC3\r\nDuration : 50mn 6s\r\nBit rate mode : Constant\r\nBit rate : 384 Kbps\r\nChannel(s) : 6 channels\r\nChannel positions : Front: L C R, Side: L R, LFE\r\nSampling rate : 48.0 KHz\r\nFrame rate : 31.250 fps (1536 spf)\r\nCompression mode : Lossy\r\nStream size : 138 MiB (12%)\r\nDefault : Yes\r\nForced : No","torrent":{"xt":"urn:btih:429d4f360455e91c7b0c881f925a73bc702672e4","amp;dn":"NRL+360+-+23-6-2016","amp;tr":["udp%3A%2F%2Ftracker.leechers-paradise.org%3A6969","udp%3A%2F%2Fzer0day.ch%3A1337","udp%3A%2F%2Fopen.demonii.com%3A1337","udp%3A%2F%2Ftracker.coppersurfer.tk%3A6969","udp%3A%2F%2Fexodus.desync.com%3A6969"],"infoHash":"429d4f360455e91c7b0c881f925a73bc702672e4","infoHashBuffer":{"type":"Buffer","data":[66,157,79,54,4,85,233,28,123,12,136,31,146,90,115,188,112,38,114,228]},"announce":[],"urlList":[]}}